<mxfile host="app.diagrams.net" modified="2024-05-06T11:37:34.670Z" agent="Mozilla/5.0 (Windows NT 10.0; Win64; x64) AppleWebKit/537.36 (KHTML, like Gecko) Chrome/124.0.0.0 Safari/537.36" etag="eySQTOYPP8qisxvZnkv2" version="24.3.1" type="device">
  <diagram name="Page-1" id="HKSS3Wj2jXMU2g8QIEEy">
    <mxGraphModel dx="1050" dy="522" grid="1" gridSize="10" guides="1" tooltips="1" connect="1" arrows="1" fold="1" page="1" pageScale="1" pageWidth="827" pageHeight="1169" math="0" shadow="0">
      <root>
        <mxCell id="0" />
        <mxCell id="1" parent="0" />
        <mxCell id="xKt1_NO1aBf8VLeOsHZg-1" value="" style="endArrow=none;html=1;rounded=0;" parent="1" edge="1">
          <mxGeometry width="50" height="50" relative="1" as="geometry">
            <mxPoint x="100" y="240" as="sourcePoint" />
            <mxPoint x="620" y="240" as="targetPoint" />
          </mxGeometry>
        </mxCell>
        <mxCell id="xKt1_NO1aBf8VLeOsHZg-2" value="" style="rounded=0;whiteSpace=wrap;html=1;direction=south;" parent="1" vertex="1">
          <mxGeometry x="120" y="200" width="30" height="40" as="geometry" />
        </mxCell>
        <mxCell id="xKt1_NO1aBf8VLeOsHZg-3" value="" style="rounded=0;whiteSpace=wrap;html=1;direction=south;" parent="1" vertex="1">
          <mxGeometry x="560" y="200" width="30" height="40" as="geometry" />
        </mxCell>
        <mxCell id="xKt1_NO1aBf8VLeOsHZg-4" value="" style="rounded=0;whiteSpace=wrap;html=1;direction=south;" parent="1" vertex="1">
          <mxGeometry x="480" y="200" width="30" height="40" as="geometry" />
        </mxCell>
        <mxCell id="xKt1_NO1aBf8VLeOsHZg-5" value="" style="rounded=0;whiteSpace=wrap;html=1;direction=south;" parent="1" vertex="1">
          <mxGeometry x="160" y="200" width="30" height="40" as="geometry" />
        </mxCell>
        <mxCell id="xKt1_NO1aBf8VLeOsHZg-6" value="" style="rounded=0;whiteSpace=wrap;html=1;direction=south;" parent="1" vertex="1">
          <mxGeometry x="200" y="200" width="30" height="40" as="geometry" />
        </mxCell>
        <mxCell id="xKt1_NO1aBf8VLeOsHZg-7" value="" style="rounded=0;whiteSpace=wrap;html=1;direction=south;" parent="1" vertex="1">
          <mxGeometry x="240" y="200" width="30" height="40" as="geometry" />
        </mxCell>
        <mxCell id="xKt1_NO1aBf8VLeOsHZg-8" value="" style="rounded=0;whiteSpace=wrap;html=1;direction=south;" parent="1" vertex="1">
          <mxGeometry x="320" y="200" width="30" height="40" as="geometry" />
        </mxCell>
        <mxCell id="xKt1_NO1aBf8VLeOsHZg-9" value="" style="rounded=0;whiteSpace=wrap;html=1;direction=south;" parent="1" vertex="1">
          <mxGeometry x="280" y="200" width="30" height="40" as="geometry" />
        </mxCell>
        <mxCell id="xKt1_NO1aBf8VLeOsHZg-10" value="" style="rounded=0;whiteSpace=wrap;html=1;direction=south;" parent="1" vertex="1">
          <mxGeometry x="520" y="200" width="30" height="40" as="geometry" />
        </mxCell>
        <mxCell id="xKt1_NO1aBf8VLeOsHZg-11" value="" style="rounded=0;whiteSpace=wrap;html=1;direction=south;" parent="1" vertex="1">
          <mxGeometry x="360" y="200" width="30" height="40" as="geometry" />
        </mxCell>
        <mxCell id="xKt1_NO1aBf8VLeOsHZg-12" value="" style="rounded=0;whiteSpace=wrap;html=1;direction=south;" parent="1" vertex="1">
          <mxGeometry x="400" y="200" width="30" height="40" as="geometry" />
        </mxCell>
        <mxCell id="xKt1_NO1aBf8VLeOsHZg-13" value="" style="rounded=0;whiteSpace=wrap;html=1;direction=south;" parent="1" vertex="1">
          <mxGeometry x="440" y="200" width="30" height="40" as="geometry" />
        </mxCell>
        <mxCell id="xKt1_NO1aBf8VLeOsHZg-14" value="" style="rounded=0;whiteSpace=wrap;html=1;direction=south;fillColor=#f5f5f5;fontColor=#333333;strokeColor=#666666;" parent="1" vertex="1">
          <mxGeometry x="600" y="340" width="30" height="40" as="geometry" />
        </mxCell>
        <mxCell id="xKt1_NO1aBf8VLeOsHZg-15" value="" style="endArrow=none;html=1;rounded=0;" parent="1" edge="1">
          <mxGeometry width="50" height="50" relative="1" as="geometry">
            <mxPoint x="100" y="380" as="sourcePoint" />
            <mxPoint x="640" y="380" as="targetPoint" />
          </mxGeometry>
        </mxCell>
        <mxCell id="xKt1_NO1aBf8VLeOsHZg-16" value="" style="rounded=0;whiteSpace=wrap;html=1;direction=south;fillColor=#f5f5f5;fontColor=#333333;strokeColor=#666666;" parent="1" vertex="1">
          <mxGeometry x="520" y="340" width="30" height="40" as="geometry" />
        </mxCell>
        <mxCell id="xKt1_NO1aBf8VLeOsHZg-17" value="" style="rounded=0;whiteSpace=wrap;html=1;direction=south;fillColor=#f5f5f5;fontColor=#333333;strokeColor=#666666;" parent="1" vertex="1">
          <mxGeometry x="480" y="340" width="30" height="40" as="geometry" />
        </mxCell>
        <mxCell id="xKt1_NO1aBf8VLeOsHZg-18" value="" style="rounded=0;whiteSpace=wrap;html=1;direction=south;fillColor=#f5f5f5;fontColor=#333333;strokeColor=#666666;" parent="1" vertex="1">
          <mxGeometry x="440" y="340" width="30" height="40" as="geometry" />
        </mxCell>
        <mxCell id="xKt1_NO1aBf8VLeOsHZg-19" value="" style="rounded=0;whiteSpace=wrap;html=1;direction=south;fillColor=#f5f5f5;fontColor=#333333;strokeColor=#666666;" parent="1" vertex="1">
          <mxGeometry x="400" y="340" width="30" height="40" as="geometry" />
        </mxCell>
        <mxCell id="xKt1_NO1aBf8VLeOsHZg-20" value="" style="rounded=0;whiteSpace=wrap;html=1;direction=south;fillColor=#f5f5f5;fontColor=#333333;strokeColor=#666666;" parent="1" vertex="1">
          <mxGeometry x="360" y="340" width="30" height="40" as="geometry" />
        </mxCell>
        <mxCell id="xKt1_NO1aBf8VLeOsHZg-21" value="" style="rounded=0;whiteSpace=wrap;html=1;direction=south;fillColor=#f5f5f5;fontColor=#333333;strokeColor=#666666;" parent="1" vertex="1">
          <mxGeometry x="320" y="340" width="30" height="40" as="geometry" />
        </mxCell>
        <mxCell id="xKt1_NO1aBf8VLeOsHZg-22" value="" style="rounded=0;whiteSpace=wrap;html=1;direction=south;fillColor=default;strokeColor=#23445d;gradientColor=#BA0909;gradientDirection=north;" parent="1" vertex="1">
          <mxGeometry x="280" y="340" width="30" height="40" as="geometry" />
        </mxCell>
        <mxCell id="xKt1_NO1aBf8VLeOsHZg-23" value="" style="rounded=0;whiteSpace=wrap;html=1;direction=south;fillColor=#f5f5f5;fontColor=#333333;strokeColor=#666666;" parent="1" vertex="1">
          <mxGeometry x="240" y="340" width="30" height="40" as="geometry" />
        </mxCell>
        <mxCell id="xKt1_NO1aBf8VLeOsHZg-24" value="" style="rounded=0;whiteSpace=wrap;html=1;direction=south;fillColor=#f5f5f5;fontColor=#333333;strokeColor=#666666;" parent="1" vertex="1">
          <mxGeometry x="200" y="340" width="30" height="40" as="geometry" />
        </mxCell>
        <mxCell id="xKt1_NO1aBf8VLeOsHZg-25" value="" style="rounded=0;whiteSpace=wrap;html=1;direction=south;fillColor=#f5f5f5;fontColor=#333333;strokeColor=#666666;" parent="1" vertex="1">
          <mxGeometry x="160" y="340" width="30" height="40" as="geometry" />
        </mxCell>
        <mxCell id="xKt1_NO1aBf8VLeOsHZg-28" value="" style="rounded=0;whiteSpace=wrap;html=1;direction=south;fillColor=#f5f5f5;fontColor=#333333;strokeColor=#666666;" parent="1" vertex="1">
          <mxGeometry x="560" y="340" width="30" height="40" as="geometry" />
        </mxCell>
        <mxCell id="xKt1_NO1aBf8VLeOsHZg-29" value="&lt;font style=&quot;font-size: 14px;&quot;&gt;M3&lt;/font&gt;" style="text;html=1;align=center;verticalAlign=middle;whiteSpace=wrap;rounded=0;" parent="1" vertex="1">
          <mxGeometry x="225" y="345" width="60" height="30" as="geometry" />
        </mxCell>
        <mxCell id="xKt1_NO1aBf8VLeOsHZg-30" value="&lt;font style=&quot;font-size: 14px;&quot;&gt;M2&lt;/font&gt;" style="text;html=1;align=center;verticalAlign=middle;whiteSpace=wrap;rounded=0;" parent="1" vertex="1">
          <mxGeometry x="185" y="345" width="60" height="30" as="geometry" />
        </mxCell>
        <mxCell id="xKt1_NO1aBf8VLeOsHZg-31" value="&lt;font style=&quot;font-size: 14px;&quot;&gt;M1&lt;/font&gt;" style="text;html=1;align=center;verticalAlign=middle;whiteSpace=wrap;rounded=0;" parent="1" vertex="1">
          <mxGeometry x="145" y="345" width="60" height="30" as="geometry" />
        </mxCell>
        <mxCell id="xKt1_NO1aBf8VLeOsHZg-32" value="&lt;font style=&quot;font-size: 14px;&quot;&gt;M1&lt;/font&gt;" style="text;html=1;align=center;verticalAlign=middle;whiteSpace=wrap;rounded=0;" parent="1" vertex="1">
          <mxGeometry x="105" y="205" width="60" height="30" as="geometry" />
        </mxCell>
        <mxCell id="xKt1_NO1aBf8VLeOsHZg-33" value="&lt;font style=&quot;font-size: 14px;&quot;&gt;M7&lt;/font&gt;" style="text;html=1;align=center;verticalAlign=middle;whiteSpace=wrap;rounded=0;" parent="1" vertex="1">
          <mxGeometry x="545" y="345" width="60" height="30" as="geometry" />
        </mxCell>
        <mxCell id="xKt1_NO1aBf8VLeOsHZg-34" value="&lt;font style=&quot;font-size: 14px;&quot;&gt;M2&lt;/font&gt;" style="text;html=1;align=center;verticalAlign=middle;whiteSpace=wrap;rounded=0;" parent="1" vertex="1">
          <mxGeometry x="145" y="205" width="60" height="30" as="geometry" />
        </mxCell>
        <mxCell id="xKt1_NO1aBf8VLeOsHZg-35" value="&lt;font style=&quot;font-size: 14px;&quot;&gt;M3&lt;/font&gt;" style="text;html=1;align=center;verticalAlign=middle;whiteSpace=wrap;rounded=0;" parent="1" vertex="1">
          <mxGeometry x="185" y="205" width="60" height="30" as="geometry" />
        </mxCell>
        <mxCell id="xKt1_NO1aBf8VLeOsHZg-36" value="&lt;span style=&quot;font-size: 14px;&quot;&gt;M6&lt;/span&gt;" style="text;html=1;align=center;verticalAlign=middle;whiteSpace=wrap;rounded=0;" parent="1" vertex="1">
          <mxGeometry x="465" y="205" width="60" height="30" as="geometry" />
        </mxCell>
        <mxCell id="xKt1_NO1aBf8VLeOsHZg-37" value="&lt;font style=&quot;font-size: 14px;&quot;&gt;M5&lt;/font&gt;" style="text;html=1;align=center;verticalAlign=middle;whiteSpace=wrap;rounded=0;" parent="1" vertex="1">
          <mxGeometry x="465" y="345" width="60" height="30" as="geometry" />
        </mxCell>
        <mxCell id="xKt1_NO1aBf8VLeOsHZg-38" value="&lt;font style=&quot;font-size: 14px;&quot;&gt;M7&lt;/font&gt;" style="text;html=1;align=center;verticalAlign=middle;whiteSpace=wrap;rounded=0;" parent="1" vertex="1">
          <mxGeometry x="385" y="345" width="60" height="30" as="geometry" />
        </mxCell>
        <mxCell id="xKt1_NO1aBf8VLeOsHZg-39" value="&lt;font style=&quot;font-size: 14px;&quot;&gt;M6&lt;/font&gt;" style="text;html=1;align=center;verticalAlign=middle;whiteSpace=wrap;rounded=0;" parent="1" vertex="1">
          <mxGeometry x="345" y="345" width="60" height="30" as="geometry" />
        </mxCell>
        <mxCell id="xKt1_NO1aBf8VLeOsHZg-40" value="&lt;font style=&quot;font-size: 14px;&quot;&gt;M4&lt;/font&gt;" style="text;html=1;align=center;verticalAlign=middle;whiteSpace=wrap;rounded=0;" parent="1" vertex="1">
          <mxGeometry x="265" y="345" width="60" height="30" as="geometry" />
        </mxCell>
        <mxCell id="xKt1_NO1aBf8VLeOsHZg-41" value="&lt;font style=&quot;font-size: 14px;&quot;&gt;M5&lt;/font&gt;" style="text;html=1;align=center;verticalAlign=middle;whiteSpace=wrap;rounded=0;" parent="1" vertex="1">
          <mxGeometry x="305" y="345" width="60" height="30" as="geometry" />
        </mxCell>
        <mxCell id="xKt1_NO1aBf8VLeOsHZg-42" value="&lt;font style=&quot;font-size: 14px;&quot;&gt;M4&lt;/font&gt;" style="text;html=1;align=center;verticalAlign=middle;whiteSpace=wrap;rounded=0;" parent="1" vertex="1">
          <mxGeometry x="225" y="205" width="60" height="30" as="geometry" />
        </mxCell>
        <mxCell id="xKt1_NO1aBf8VLeOsHZg-44" value="&lt;font style=&quot;font-size: 14px;&quot;&gt;M5&lt;/font&gt;" style="text;html=1;align=center;verticalAlign=middle;whiteSpace=wrap;rounded=0;" parent="1" vertex="1">
          <mxGeometry x="265" y="205" width="60" height="30" as="geometry" />
        </mxCell>
        <mxCell id="xKt1_NO1aBf8VLeOsHZg-45" value="&lt;font style=&quot;font-size: 14px;&quot;&gt;M6&lt;/font&gt;" style="text;html=1;align=center;verticalAlign=middle;whiteSpace=wrap;rounded=0;" parent="1" vertex="1">
          <mxGeometry x="305" y="205" width="60" height="30" as="geometry" />
        </mxCell>
        <mxCell id="xKt1_NO1aBf8VLeOsHZg-46" value="&lt;font style=&quot;font-size: 14px;&quot;&gt;M7&lt;/font&gt;" style="text;html=1;align=center;verticalAlign=middle;whiteSpace=wrap;rounded=0;" parent="1" vertex="1">
          <mxGeometry x="345" y="205" width="60" height="30" as="geometry" />
        </mxCell>
        <mxCell id="xKt1_NO1aBf8VLeOsHZg-47" value="&lt;font style=&quot;font-size: 14px;&quot;&gt;M4&lt;/font&gt;" style="text;html=1;align=center;verticalAlign=middle;whiteSpace=wrap;rounded=0;" parent="1" vertex="1">
          <mxGeometry x="425" y="345" width="60" height="30" as="geometry" />
        </mxCell>
        <mxCell id="xKt1_NO1aBf8VLeOsHZg-48" value="&lt;font style=&quot;font-size: 14px;&quot;&gt;M4&lt;/font&gt;" style="text;html=1;align=center;verticalAlign=middle;whiteSpace=wrap;rounded=0;" parent="1" vertex="1">
          <mxGeometry x="385" y="205" width="60" height="30" as="geometry" />
        </mxCell>
        <mxCell id="xKt1_NO1aBf8VLeOsHZg-49" value="&lt;font style=&quot;font-size: 14px;&quot;&gt;M5&lt;/font&gt;" style="text;html=1;align=center;verticalAlign=middle;whiteSpace=wrap;rounded=0;" parent="1" vertex="1">
          <mxGeometry x="425" y="205" width="60" height="30" as="geometry" />
        </mxCell>
        <mxCell id="F45EaGBJWcl2gNSD-J_z-6" style="edgeStyle=none;rounded=0;orthogonalLoop=1;jettySize=auto;html=1;entryX=1;entryY=0.75;entryDx=0;entryDy=0;" edge="1" parent="1" target="xKt1_NO1aBf8VLeOsHZg-3">
          <mxGeometry relative="1" as="geometry">
            <mxPoint x="560" y="250" as="targetPoint" />
            <mxPoint x="510" y="340" as="sourcePoint" />
          </mxGeometry>
        </mxCell>
        <mxCell id="xKt1_NO1aBf8VLeOsHZg-50" value="&lt;span style=&quot;font-size: 14px;&quot;&gt;M6&lt;/span&gt;" style="text;html=1;align=center;verticalAlign=middle;whiteSpace=wrap;rounded=0;" parent="1" vertex="1">
          <mxGeometry x="505" y="345" width="60" height="30" as="geometry" />
        </mxCell>
        <mxCell id="xKt1_NO1aBf8VLeOsHZg-51" value="&lt;font style=&quot;font-size: 14px;&quot;&gt;M7&lt;/font&gt;" style="text;html=1;align=center;verticalAlign=middle;whiteSpace=wrap;rounded=0;" parent="1" vertex="1">
          <mxGeometry x="505" y="205" width="60" height="30" as="geometry" />
        </mxCell>
        <mxCell id="xKt1_NO1aBf8VLeOsHZg-52" value="&lt;span style=&quot;font-size: 14px;&quot;&gt;M8&lt;/span&gt;" style="text;html=1;align=center;verticalAlign=middle;whiteSpace=wrap;rounded=0;" parent="1" vertex="1">
          <mxGeometry x="585" y="345" width="60" height="30" as="geometry" />
        </mxCell>
        <mxCell id="xKt1_NO1aBf8VLeOsHZg-53" value="&lt;span style=&quot;font-size: 14px;&quot;&gt;M8&lt;/span&gt;" style="text;html=1;align=center;verticalAlign=middle;whiteSpace=wrap;rounded=0;" parent="1" vertex="1">
          <mxGeometry x="545" y="205" width="60" height="30" as="geometry" />
        </mxCell>
        <mxCell id="xKt1_NO1aBf8VLeOsHZg-54" value="" style="endArrow=none;dashed=1;html=1;dashPattern=1 3;strokeWidth=2;rounded=0;entryX=0.25;entryY=0;entryDx=0;entryDy=0;" parent="1" target="xKt1_NO1aBf8VLeOsHZg-31" edge="1">
          <mxGeometry width="50" height="50" relative="1" as="geometry">
            <mxPoint x="120" y="240" as="sourcePoint" />
            <mxPoint x="260" y="460" as="targetPoint" />
          </mxGeometry>
        </mxCell>
        <mxCell id="xKt1_NO1aBf8VLeOsHZg-56" value="" style="endArrow=none;dashed=1;html=1;dashPattern=1 3;strokeWidth=2;rounded=0;" parent="1" edge="1">
          <mxGeometry width="50" height="50" relative="1" as="geometry">
            <mxPoint x="150" y="240" as="sourcePoint" />
            <mxPoint x="190" y="340" as="targetPoint" />
          </mxGeometry>
        </mxCell>
        <mxCell id="xKt1_NO1aBf8VLeOsHZg-58" value="" style="endArrow=classic;html=1;rounded=0;exitX=0;exitY=0;exitDx=0;exitDy=0;" parent="1" source="xKt1_NO1aBf8VLeOsHZg-25" edge="1">
          <mxGeometry width="50" height="50" relative="1" as="geometry">
            <mxPoint x="150" y="490" as="sourcePoint" />
            <mxPoint x="255" y="240" as="targetPoint" />
          </mxGeometry>
        </mxCell>
        <mxCell id="xKt1_NO1aBf8VLeOsHZg-61" value="&lt;font style=&quot;font-size: 12px;&quot;&gt;NACK4&lt;/font&gt;" style="text;html=1;align=center;verticalAlign=middle;whiteSpace=wrap;rounded=0;" parent="1" vertex="1">
          <mxGeometry x="320" y="320" width="60" height="20" as="geometry" />
        </mxCell>
        <mxCell id="xKt1_NO1aBf8VLeOsHZg-64" value="" style="endArrow=classic;html=1;rounded=0;entryX=1;entryY=0.75;entryDx=0;entryDy=0;exitX=0;exitY=0;exitDx=0;exitDy=0;" parent="1" target="xKt1_NO1aBf8VLeOsHZg-11" edge="1" source="xKt1_NO1aBf8VLeOsHZg-22">
          <mxGeometry width="50" height="50" relative="1" as="geometry">
            <mxPoint x="310" y="300" as="sourcePoint" />
            <mxPoint x="360" y="250" as="targetPoint" />
          </mxGeometry>
        </mxCell>
        <mxCell id="xKt1_NO1aBf8VLeOsHZg-68" style="edgeStyle=orthogonalEdgeStyle;rounded=0;orthogonalLoop=1;jettySize=auto;html=1;exitX=0.5;exitY=1;exitDx=0;exitDy=0;" parent="1" edge="1">
          <mxGeometry relative="1" as="geometry">
            <mxPoint x="255" y="330" as="sourcePoint" />
            <mxPoint x="255" y="330" as="targetPoint" />
          </mxGeometry>
        </mxCell>
        <mxCell id="xKt1_NO1aBf8VLeOsHZg-78" value="" style="endArrow=classic;html=1;rounded=0;exitX=0;exitY=0;exitDx=0;exitDy=0;" parent="1" source="xKt1_NO1aBf8VLeOsHZg-16" edge="1">
          <mxGeometry width="50" height="50" relative="1" as="geometry">
            <mxPoint x="520" y="310" as="sourcePoint" />
            <mxPoint x="600" y="240" as="targetPoint" />
          </mxGeometry>
        </mxCell>
        <mxCell id="xKt1_NO1aBf8VLeOsHZg-80" value="&lt;font style=&quot;font-size: 12px;&quot;&gt;ACK6&lt;/font&gt;" style="text;html=1;align=center;verticalAlign=middle;whiteSpace=wrap;rounded=0;rotation=310;" parent="1" vertex="1">
          <mxGeometry x="533" y="280" width="57" height="30" as="geometry" />
        </mxCell>
        <mxCell id="xKt1_NO1aBf8VLeOsHZg-81" value="" style="endArrow=classic;html=1;rounded=0;exitX=0;exitY=0;exitDx=0;exitDy=0;" parent="1" edge="1" source="xKt1_NO1aBf8VLeOsHZg-28">
          <mxGeometry width="50" height="50" relative="1" as="geometry">
            <mxPoint x="590" y="300" as="sourcePoint" />
            <mxPoint x="640" y="240" as="targetPoint" />
          </mxGeometry>
        </mxCell>
        <mxCell id="xKt1_NO1aBf8VLeOsHZg-82" value="&lt;font style=&quot;font-size: 12px;&quot;&gt;ACK7&lt;/font&gt;" style="text;html=1;align=center;verticalAlign=middle;whiteSpace=wrap;rounded=0;rotation=310;" parent="1" vertex="1">
          <mxGeometry x="573" y="280" width="57" height="30" as="geometry" />
        </mxCell>
        <mxCell id="xKt1_NO1aBf8VLeOsHZg-85" value="&lt;font style=&quot;font-size: 12px;&quot;&gt;ACK1&lt;/font&gt;" style="text;html=1;align=center;verticalAlign=middle;whiteSpace=wrap;rounded=0;rotation=310;" parent="1" vertex="1">
          <mxGeometry x="190" y="270" width="57" height="30" as="geometry" />
        </mxCell>
        <mxCell id="xKt1_NO1aBf8VLeOsHZg-86" value="" style="endArrow=classic;html=1;rounded=0;exitX=0;exitY=0;exitDx=0;exitDy=0;entryX=1;entryY=0.5;entryDx=0;entryDy=0;" parent="1" source="xKt1_NO1aBf8VLeOsHZg-24" target="xKt1_NO1aBf8VLeOsHZg-9" edge="1">
          <mxGeometry width="50" height="50" relative="1" as="geometry">
            <mxPoint x="600" y="310" as="sourcePoint" />
            <mxPoint x="650" y="250" as="targetPoint" />
          </mxGeometry>
        </mxCell>
        <mxCell id="xKt1_NO1aBf8VLeOsHZg-87" value="" style="endArrow=classic;html=1;rounded=0;exitX=0;exitY=0;exitDx=0;exitDy=0;" parent="1" source="xKt1_NO1aBf8VLeOsHZg-23" edge="1">
          <mxGeometry width="50" height="50" relative="1" as="geometry">
            <mxPoint x="240" y="310" as="sourcePoint" />
            <mxPoint x="330" y="240" as="targetPoint" />
          </mxGeometry>
        </mxCell>
        <mxCell id="xKt1_NO1aBf8VLeOsHZg-88" value="&lt;font style=&quot;font-size: 12px;&quot;&gt;ACK3&lt;/font&gt;" style="text;html=1;align=center;verticalAlign=middle;whiteSpace=wrap;rounded=0;rotation=310;" parent="1" vertex="1">
          <mxGeometry x="263" y="270" width="57" height="30" as="geometry" />
        </mxCell>
        <mxCell id="xKt1_NO1aBf8VLeOsHZg-89" value="&lt;font style=&quot;font-size: 12px;&quot;&gt;ACK2&lt;/font&gt;" style="text;html=1;align=center;verticalAlign=middle;whiteSpace=wrap;rounded=0;rotation=310;" parent="1" vertex="1">
          <mxGeometry x="223" y="265" width="57" height="30" as="geometry" />
        </mxCell>
        <mxCell id="uRto5l73tN3a9eekR6p2-4" value="&lt;font style=&quot;font-size: 16px;&quot;&gt;repeating M4&lt;/font&gt;" style="text;html=1;align=center;verticalAlign=middle;whiteSpace=wrap;rounded=0;" parent="1" vertex="1">
          <mxGeometry x="270" y="150" width="170" height="30" as="geometry" />
        </mxCell>
        <mxCell id="uRto5l73tN3a9eekR6p2-5" value="" style="endArrow=classic;html=1;rounded=0;" parent="1" edge="1">
          <mxGeometry width="50" height="50" relative="1" as="geometry">
            <mxPoint x="250" y="180" as="sourcePoint" />
            <mxPoint x="450" y="180" as="targetPoint" />
          </mxGeometry>
        </mxCell>
        <mxCell id="uRto5l73tN3a9eekR6p2-7" value="&lt;font style=&quot;font-size: 15px;&quot;&gt;Transmitter&lt;/font&gt;" style="text;html=1;align=center;verticalAlign=middle;whiteSpace=wrap;rounded=0;" parent="1" vertex="1">
          <mxGeometry x="30" y="210" width="60" height="30" as="geometry" />
        </mxCell>
        <mxCell id="uRto5l73tN3a9eekR6p2-9" value="&lt;span style=&quot;font-size: 15px;&quot;&gt;Receiver&lt;/span&gt;" style="text;html=1;align=center;verticalAlign=middle;whiteSpace=wrap;rounded=0;" parent="1" vertex="1">
          <mxGeometry x="30" y="350" width="60" height="30" as="geometry" />
        </mxCell>
        <mxCell id="F45EaGBJWcl2gNSD-J_z-3" style="edgeStyle=none;rounded=0;orthogonalLoop=1;jettySize=auto;html=1;exitX=0;exitY=0;exitDx=0;exitDy=0;entryX=0.895;entryY=-0.109;entryDx=0;entryDy=0;entryPerimeter=0;" edge="1" parent="1" source="xKt1_NO1aBf8VLeOsHZg-18">
          <mxGeometry relative="1" as="geometry">
            <mxPoint x="521.9767310563088" y="246.00877973420302" as="targetPoint" />
            <Array as="points">
              <mxPoint x="530" y="246" />
            </Array>
          </mxGeometry>
        </mxCell>
        <mxCell id="F45EaGBJWcl2gNSD-J_z-4" value="&lt;font style=&quot;font-size: 12px;&quot;&gt;ACK4&lt;/font&gt;" style="text;html=1;align=center;verticalAlign=middle;whiteSpace=wrap;rounded=0;rotation=310;" vertex="1" parent="1">
          <mxGeometry x="453" y="280" width="57" height="30" as="geometry" />
        </mxCell>
        <mxCell id="F45EaGBJWcl2gNSD-J_z-8" value="&lt;font style=&quot;font-size: 12px;&quot;&gt;ACK5&lt;/font&gt;" style="text;html=1;align=center;verticalAlign=middle;whiteSpace=wrap;rounded=0;rotation=310;" vertex="1" parent="1">
          <mxGeometry x="493" y="280" width="57" height="30" as="geometry" />
        </mxCell>
      </root>
    </mxGraphModel>
  </diagram>
</mxfile>
